Patient4_TMGait_0pt4_02_left_28_EMG.mot
version=1
nRows=39
nColumns=33
inDegrees=no
endheader
time	1LAddLong	2LGlutMax	3LGlutMed	4LIliopsoas	5LSemiMemb	6LBicFemLong	7LRecFem	8LVastMed	9LVastLat	10LGasMed	11LTibAnt	12lTibPost	13LPeroneusLong	14LSol	15LExtDigLong	16LFlexDigLong	17RAddLong	18RGlutMax	19RGlutMed	20RIliopsoas	21RSemiMemb	22RBicFemLong	23RRecFem	24RVastMed	25RVastLat	26RGasMed	27RTibAnt	28RTibPost	29RPeroneusLong	30RSol	31RExtDigLong	32RFlexDigLong
38.49	-0.001373	0.046844	-0.22064	0.008392	-0.028229	0.008545	0.25513	0.00351	-0.022278	0.019226	-0.059967	-0.001831	-0.022278	0.06134	0.012817	-0.001373	-0.0383	-0.097961	0.13763	-0.030212	0.031738	0.087585	0.033722	0.055695	-0.014343	-0.014954	-0.072937	-0.010071	-0.014496	0.028229	-0.002289	-0.009613
38.491	0.00946	0.013275	-0.22553	0.018158	-0.024414	-0.019379	0.25177	0.003357	-0.027313	0.002594	-0.042267	0.002594	0.046082	-0.025024	0.008698	0.005341	0.022278	0.004272	0.20035	-0.034943	-0.16571	0.081329	0.06546	-0.042114	0.035706	-0.018463	-0.047302	-0.010529	-0.034637	-0.015106	-0.009918	-0.009003
38.492	0.008545	0.007477	-0.19882	0.002899	-0.006561	-0.04837	0.24643	0.005646	-0.018616	-0.014343	-0.022583	0.002441	0.073853	-0.016632	0.013123	-0.002747	0.013275	-0.029907	0.70511	-0.005646	-0.31906	0.15472	0.041199	-0.045166	0.11459	-0.018005	-0.030975	-0.009155	-0.043945	-0.027466	-0.005035	-0.012512
38.493	-0.000763	-0.035858	-0.20111	0.018616	0.014648	-0.039673	0.27512	0.002899	-0.028992	0.01358	0.06012	0.007477	-0.003662	0.023041	0.037231	-0.002594	0.011902	-0.063171	0.39002	0.036774	-0.51331	0.10391	0.075226	-0.13763	0.18601	-0.024414	-0.11108	-0.013275	-0.027161	-0.031433	0.005493	-0.006409
38.494	0.003815	-0.023041	-0.19638	0.003204	0.020447	-0.022278	0.3006	0.007324	-0.034027	0.01709	0.093689	0.001068	-0.029449	0.020447	0.041504	-0.004425	-0.030823	-0.020752	0.28488	-0.011902	-0.54428	0.054016	-0.097504	-0.10468	0.3125	-0.019836	-0.13168	-0.011292	0	-0.033417	-0.002441	-0.005341
38.495	-0.003204	-0.039063	-0.17166	0.011597	-0.016022	0.00351	0.30655	0.00885	-0.037231	0.001373	0.063019	0.001984	0.02533	0.007324	-0.016022	-0.013733	-0.094299	-0.10391	0.42419	-0.039215	-0.5455	0.103	-0.40878	-0.02243	0.43778	-0.025482	-0.11551	-0.015869	-0.003357	0	-0.001526	-0.002136
38.496	-0.000458	-0.071564	-0.19638	0.007935	-0.040588	-0.012512	0.29877	0.003815	-0.028229	0.000305	0.008698	-0.004578	0.070648	0.038147	-0.035095	-0.005798	-0.059204	-0.12619	0.55115	-0.0383	-0.69611	0.29098	-0.58365	0.052032	0.44769	-0.021515	-0.022736	-0.010986	-0.010986	-0.024719	-0.002747	-0.00061
38.497	0.005188	-0.031891	-0.19821	0.007172	-0.070038	-0.055084	0.3009	0.001526	-0.024261	-0.026093	0.015106	-0.00412	0.022736	0.0383	-0.0354	-0.017395	-0.046997	-0.092163	0.39383	-0.006561	-0.35416	0.28839	-0.32989	0.30838	0.30472	-0.025635	0.070801	-0.004883	-0.009308	-0.046234	-0.00061	-0.004578
38.498	0.016327	-0.035553	-0.21255	0.014038	-0.020447	-0.038147	0.31754	0.002441	-0.033112	-0.062561	0.032349	-0.002441	0.006104	-0.021973	-0.030518	-0.012512	-0.054626	-0.084686	0.25772	-0.018005	0.44128	0.18555	-0.000458	0.29419	0.12558	-0.016327	0.2002	-0.006104	-0.048981	-0.048676	-0.005798	-0.011139
38.499	0.007477	-0.054321	-0.2211	0.006866	0.005951	-0.007019	0.30151	0.003052	-0.032959	-0.096588	0.015259	-0.014496	-0.035095	-0.050964	-0.010376	-0.01236	-0.10468	-0.074005	0.35034	-0.03067	0.7608	0.15472	0.075989	0.336	-0.02121	-0.021057	0.45105	-0.007477	-0.087128	-0.048523	0.000763	-0.007935
38.5	0.006714	-0.040131	-0.24094	0.010986	0.03067	-0.021057	0.31311	0.004578	-0.033569	-0.079803	0.031738	-0.001984	-0.080719	-0.01709	0.001678	0.005798	-0.067291	-0.13916	0.18768	-0.037384	0.38238	-0.04303	-0.014954	0.3067	-0.16419	-0.020599	0.52048	-0.007477	-0.1033	-0.039673	-0.001678	-0.012512
38.501	0.016937	-0.032959	-0.2034	-0.009155	0.054779	-0.023804	0.30334	0.005951	-0.031433	-0.074921	0.027008	-0.007629	-0.11765	0.035248	0.013123	0.008545	-0.013123	-0.18188	0.22217	-0.067902	0.052338	-0.14206	-0.013885	0.18784	-0.30319	-0.022125	0.36941	-0.009308	-0.092468	-0.076294	-0.00061	-0.010529
38.502	0.01236	-0.042419	-0.20371	-0.006561	0.036469	-0.046692	0.28412	-0.004272	-0.031281	-0.055695	0.009155	0.009155	-0.12543	0.028076	0.011444	-0.001373	0.017242	-0.14053	0.18036	-0.085449	-0.009766	-0.12421	-0.089722	0.15335	-0.28809	-0.021515	-0.023956	-0.00412	-0.00824	-0.088348	-0.003967	-0.011749
38.503	0.006866	-0.058899	-0.22125	0.004272	0.016785	-0.000916	0.28473	0.007629	-0.035095	-0.0383	0.014954	-0.010529	-0.069122	0.008545	0.006409	0.005188	0.018616	-0.049438	0.11139	-0.16769	-0.003662	-0.064545	-0.14618	0.12848	-0.1683	-0.023804	-0.38025	-0.006409	0.050812	-0.10391	0.000916	-0.005035
38.504	0.011749	-0.033417	-0.19913	0.00946	-0.008698	0.041656	0.25146	0.003357	-0.031738	0.024261	0.000153	0.007172	0.003815	0.020905	0.001373	0.00946	-0.018311	-0.079956	0.31158	-0.080566	-0.168	-0.022583	-0.18448	0.091705	-0.13245	-0.020752	-0.50461	-0.007019	-0.017242	-0.11505	-0.00412	-0.007324
38.505	0.010223	-0.019226	-0.19501	0.002441	-0.010681	0.039673	0.22369	0.004883	-0.017395	0.06012	0.001678	-0.002899	0.00412	-0.021973	-0.010071	0.010834	-0.012665	-0.1207	0.28732	0.088348	-0.22797	-0.11169	-0.15533	0.032654	-0.19806	-0.023041	-0.18234	-0.003052	-0.11215	-0.10864	0.000153	-0.013123
38.506	0.010376	0.014038	-0.15503	0.000458	0.017548	0.06546	0.20462	0.010986	-0.006409	0.00061	-0.012054	-0.000916	-0.012207	-0.092621	-0.014343	0.007782	-0.015869	-0.18463	0.58319	0.088806	-0.224	-0.047607	-0.24353	-0.038757	-0.24948	-0.020905	0.036926	-0.004578	-0.076447	-0.10529	-0.008392	-0.00412
38.507	0.016022	-0.009918	-0.15976	0.006561	0.012054	0.073242	0.21042	0.005188	-0.018921	-0.032654	-0.033417	0.000153	0.035706	-0.13809	0.020905	0.007629	-0.008545	-0.20706	0.74219	0.029449	-0.44342	-0.074921	-0.159	0.000916	-0.12924	-0.022125	0.052338	-0.006256	-0.058594	-0.087433	-0.001678	-0.004272
38.508	0.005341	-0.002136	-0.16113	0.024719	0.005798	0.060425	0.19669	0	-0.014648	-0.028229	-0.011749	0.003204	0.002289	-0.039368	0.017395	-0.002289	0.011292	-0.21103	0.5484	0.013885	-0.47669	-0.10773	-0.085144	-0.022278	-0.023041	-0.022278	-0.066986	-0.006714	-0.011444	-0.065308	0	-0.011292
38.509	0.007324	-0.02121	-0.17502	0.016174	-0.007019	0.010071	0.18234	-0.000916	-0.010223	-0.037994	0.001678	0.004883	-0.028076	0.022278	0.008698	-0.010681	0.000305	-0.21057	0.29297	-0.034332	-0.11337	0.021515	-0.04776	-0.016632	-0.005341	-0.019531	-0.2533	-0.002747	-0.019226	-0.076904	-0.002136	-0.011139
38.51	0.00885	0.002594	-0.16861	0.022888	0.008392	-0.093231	0.1593	-0.002441	-0.015717	0.03067	-0.005341	0.007782	0.003052	-0.04715	0.025787	0.00885	0.047913	-0.2002	0.064545	-0.033417	0.28824	0.049896	-0.058441	-0.1831	0.032196	-0.008545	-0.23758	-0.001373	0.015869	-0.063324	0.002136	-0.008087
38.511	0.007324	-0.030518	-0.17868	0.006104	0.006256	-0.12512	0.1564	0.000916	-0.027466	0.24872	0.021057	-0.002136	0.004425	-0.029907	0.022888	-0.001526	0.064392	-0.19928	0.077057	0.021515	0.1297	0.025787	-0.50995	-0.15396	0.09201	-0.006714	-0.21164	0.000153	0.21088	-0.050354	-0.002136	-0.010376
38.512	0.005493	-0.015106	-0.1709	-0.007019	0.005646	-0.10239	0.17609	0.007935	-0.019989	0.14114	-0.001678	-0.010834	0.028839	-0.092468	0.011444	-0.000153	-0.029907	-0.2356	-0.029144	0.19257	0.10773	-0.006561	-0.99289	0.095367	0.19653	-0.009003	-0.27649	-0.011749	0.10971	0.005188	0.001221	-0.007935
38.513	0.005341	-0.036163	-0.16357	-0.015411	0.003967	-0.024567	0.13992	-0.00061	-0.050964	-0.23071	-0.037231	-0.002594	0.005341	-0.15808	-0.04364	-0.001373	0.028381	-0.21362	0.027161	0.31143	-0.22873	-0.058899	-0.74204	0.044708	0.13687	-0.010529	-0.32105	-0.006866	-0.015106	0.032349	0.002594	-0.011292
38.514	0.001984	-0.00824	-0.18524	-0.005951	0.010681	0.03891	0.18158	0.005188	-0.013123	-0.033875	-0.028229	0.001831	0.03479	-0.15747	-0.05722	-0.01358	-0.006409	-0.18402	0.15106	0.25665	-0.20874	0.009003	-0.40176	-0.11276	0.029449	-0.007782	-0.16007	-0.006561	-0.026398	0.023804	-0.001678	-0.004578
38.515	0.000305	-0.022736	-0.17746	-0.000305	0.005951	0.11169	0.16129	0.007019	-0.006104	0.2713	-0.023193	-0.007019	0.076599	-0.085449	-0.036316	0.009308	-0.045624	-0.24384	0.11597	0.13809	-0.20142	-0.006409	-0.12772	-0.28503	0.041962	-0.006104	0.093384	-0.005798	-0.058289	0.006561	-0.002594	-0.00351
38.516	0.001678	-0.016327	-0.1738	0.007324	-0.027466	0.07019	0.15656	0.007935	-0.018005	-0.020905	0.015411	-0.009155	0.075989	0.061493	-0.021973	-0.009308	-0.04425	-0.39398	0.19043	0.00061	-0.10071	0.04837	-0.036774	-0.2562	0.070496	-0.012817	0.17777	-0.005341	-0.050507	0.035858	-0.000916	-0.013275
38.517	-0.000763	0.003204	-0.17166	0.008698	0.027924	-0.015869	0.16739	0.003662	-0.001984	-0.17425	0.052643	-0.00351	0.024872	0.13138	-0.027161	0.007477	-0.048523	-0.45853	0.031128	0.030518	0.048218	0.065002	-0.1767	-0.16846	0.13184	-0.001984	0.064697	0.00061	-0.040588	0.011292	-0.000305	-0.002289
38.518	0.010529	0.032959	-0.16876	-0.003967	0.045929	0.007172	0.15579	-0.000458	-0.010376	-0.034027	0.07843	0.005798	0.001526	0.11581	-0.027771	0.019684	-0.038147	-0.49637	-0.048065	0.007477	-0.002441	0.015106	-0.26611	-0.26077	0.16724	-0.00061	0.19516	-0.004883	-0.066681	-0.045319	-0.000153	0.001526
38.519	0.000305	0.02243	-0.16571	-0.010529	0.022888	0.004425	0.17502	-0.004425	-0.012817	0.064392	0.051575	0.015259	-0.011292	0.071716	-0.038147	0.021667	-0.001831	-0.50903	0.099335	-0.090942	-0.005188	0.063477	-0.17716	-0.35797	0.14282	-0.01297	-0.024261	-0.003815	-0.088196	-0.041504	-0.002747	-0.010681
38.52	0.007782	0.016479	-0.16403	0.019684	0.003204	-0.024719	0.17868	0.003357	-0.021057	0.14374	-0.04303	0.00885	0.007782	0.022736	-0.007629	0.011749	0.066223	-0.5545	0.19501	-0.12756	0.041046	0.19928	-0.13611	-0.47806	0.11856	-0.01297	-0.089569	-0.00061	-0.045166	-0.016785	-0.002747	-0.004578
38.521	-0.005035	0.054474	-0.15701	0.015259	-0.013733	-0.024261	0.15518	-0.007477	-0.014343	0.25253	-0.066681	-0.006561	-0.035248	-0.004883	0.12482	-0.014801	0.10437	-0.72479	-0.061493	0.003967	0.14847	0.20035	-0.10712	-0.47241	0.1239	-0.003052	0.068665	-0.001526	-0.021515	0.000916	-0.000153	-0.007477
38.522	0.005646	0.039215	-0.15274	-0.001526	-0.023651	-0.027313	0.14908	-0.000916	-0.026398	0.059967	-0.047913	-0.001221	-0.048218	-0.03952	0.10696	-0.008698	0.12177	-0.82398	-0.22369	0.11749	-0.10498	0.18707	-0.15884	-0.37293	0.11429	-0.014648	0.073395	-0.003052	-0.040741	0.011902	-0.003815	-0.013275
38.523	0	0.036011	-0.12787	0.00885	-0.027008	-0.026398	0.15396	0.001068	-0.015259	0.10086	-0.026398	0.006866	-0.059662	-0.055084	0.065002	-0.006561	0.11505	-0.83969	-0.31586	0.14603	-0.31952	0.12238	-0.039368	-0.3598	0.058594	-0.006409	0.061035	-0.000916	-0.044098	-0.039368	-0.00412	-0.015259
38.524	0.007477	0.058746	-0.096588	0.007935	-0.033875	-0.020294	0.14069	0.003052	-0.024109	0.22324	0.016479	0.010834	-0.039673	-0.060577	0.056763	0.009918	0.11169	-0.86716	-0.35706	0.10498	-0.19898	0.027313	0.023346	0.13596	0.015564	-0.004578	0.028381	-0.001526	-0.027771	-0.050354	-0.001526	-0.016174
38.525	0.007935	0.041351	-0.10208	0.020905	0.006256	-0.034485	0.1535	-0.00061	-0.035553	0.13809	0.062103	0.006866	0.016785	-0.016327	0.024567	-0.001526	0.11459	-0.95795	-0.04425	-0.011902	-0.15869	-0.085297	-0.0177	0.61111	0.011292	-0.005035	0.025024	-0.000458	0.02182	-0.01358	-0.009003	-0.009003
38.526	0.000763	0.041504	-0.10101	0.011749	0.02594	0.003204	0.16281	0.00824	-0.026703	-0.000458	0.077515	-0.010681	-0.033722	0.045624	-0.046539	-0.009308	0.095215	-0.89386	0.11017	-0.1648	-0.11124	-0.21942	0.035248	0.4509	0.001831	0.000458	0.075989	-0.002899	-0.01709	-0.006104	-0.003052	-0.022583
38.527	0.00473	0.079498	-0.074615	-0.004272	0.061951	0.01297	0.19669	0.004425	-0.02121	0.17517	0.032959	-0.00351	-0.081787	0.16968	-0.11246	-0.009003	0.072021	-0.95078	0.041656	-0.19089	0.26306	-0.34119	-0.004578	0.46371	0.008545	-0.003052	0.063171	-0.000305	-0.043335	-0.036011	-0.005951	-0.011292
38.528	0.005188	0.048981	-0.076599	0.010986	0.03418	0.011292	0.18158	0.00351	-0.004883	0.27557	-0.017548	-0.007172	-0.040741	0.17197	-0.18662	-0.032349	0.13275	-0.93842	-0.1561	-0.16876	0.37888	-0.32013	0.034332	0.12009	0.062561	-0.002136	0.1001	-0.003967	-0.036163	-0.032196	-0.006104	-0.015259
